<?xml version="1.0" encoding="utf-8"?>
<!-- Generator: Adobe Illustrator 19.2.1, SVG Export Plug-In . SVG Version: 6.00 Build 0)  -->
<svg version="1.1" id="layer" xmlns="http://www.w3.org/2000/svg" xmlns:xlink="http://www.w3.org/1999/xlink" x="0px" y="0px"
	 viewBox="0 0 652 652" style="enable-background:new 0 0 652 652;" xml:space="preserve">
<style type="text/css">
	.st0{fill:#003A55;}
	.st1{fill:#1679BD;}
	.st2{clip-path:url(#SVGID_2_);fill:url(#SVGID_3_);}
</style>
<path class="st0" d="M253.9,324.2c-8,0-14.5,2.4-19.5,7.1c-5,4.7-7.5,10.9-7.5,18.5c0,3.9,0.6,7.5,1.9,10.8c1.2,3.3,3.2,6.4,5.8,9.1
	c2.6,2.8,7.8,6.5,15.5,11.3c9.5,5.8,15.7,10.5,18.7,14.2c3,3.7,4.5,7.5,4.5,11.5c0,5.4-1.8,9.6-5.4,12.9c-3.6,3.2-8.5,4.8-14.5,4.8
	c-6.4,0-11.9-2.2-16.6-6.7c-4.8-4.5-7.2-10.3-7.2-17.7h-3v26.8h3c0.9-2.5,2.2-3.8,3.8-3.8c0.8,0,2.6,0.5,5.5,1.6
	c7,2.5,12.7,3.7,17.2,3.7c7.7,0,14.4-2.7,19.9-8.2c5.5-5.5,8.3-12.2,8.3-20c0-6-1.8-11.4-5.4-16.1c-3.6-4.7-10.6-10.1-21.1-16.4
	c-9-5.4-14.9-9.8-17.6-13.3c-2.7-3.4-4.1-7.2-4.1-11.4c0-4.5,1.7-8.1,4.9-10.8c3.3-2.7,7.6-4,12.9-4c6,0,11.1,1.8,15,5.4
	c4,3.6,6.3,8.6,6.9,15h3v-23.2h-2.8c-0.3,1.2-0.6,1.9-0.9,2.3c-0.3,0.3-0.8,0.5-1.6,0.5c-1,0-2.7-0.4-5.1-1.2
	C263.1,325.1,258.3,324.2,253.9,324.2 M350.4,324.2c-9.8,0-18.6,2.3-26.6,6.9c-8,4.6-14.3,11-19,19.1c-4.7,8.1-7,16.7-7,25.9
	c0,12.3,4,23.3,12.2,33c8.1,9.6,17.9,15.6,29.2,17.9c2.6,1.3,6.3,4.8,11.2,10.5c5.5,6.4,10.1,11,13.9,13.7c3.8,2.7,7.9,4.7,12.2,6.1
	c4.3,1.3,9,2,14.1,2c6.1,0,11.6-1.1,16.5-3.3l-1.1-2.7c-2.8,1-5.8,1.5-9,1.5c-4.3,0-8.6-1.4-13-4.2c-4.3-2.9-9.8-8.3-16.2-16.3
	c-3-3.8-5.1-6.3-6.3-7.2c12.4-2.4,22.6-8.4,30.5-18c7.9-9.6,11.9-20.6,11.9-32.8c0-14.6-5.2-26.8-15.5-36.8
	C378.1,329.3,365.5,324.2,350.4,324.2 M410.7,324.2l0.2,3.2c6.5,0,10.1,1.9,10.9,5.8c0.3,1.4,0.4,3.9,0.5,7.6l0,69.9
	c-0.1,5.2-0.8,8.5-2.2,10c-1.4,1.4-3.9,2.3-7.4,2.7l-0.2,3.2h64.7l1.7-15.8h-3c-0.8,4.3-2.8,7.4-5.8,9.2c-3.1,1.8-8.5,2.6-16.4,2.6
	h-6.1c-7.1,0-11.2-2.6-12.3-7.7c-0.2-1-0.3-2.1-0.3-3.3l0.3-70.7c0-5.2,0.7-8.7,2-10.4c1.4-1.7,3.9-2.7,7.5-2.9l-0.1-3.2H410.7z
	 M351.5,328.1c11,0,20,4.3,26.9,13.1c6.9,8.7,10.4,20.7,10.4,35.8c0,14.4-3.5,25.9-10.5,34.5c-7,8.6-16.3,12.9-27.8,12.9
	c-11.1,0-20.1-4.4-27-13.4c-6.9-8.9-10.3-20.5-10.3-34.8c0-14.7,3.5-26.4,10.4-35.1C330.5,332.4,339.8,328.1,351.5,328.1
	 M500.2,343.1c-1.6,0-2.8,0.5-3.7,1.6c-0.9,1.1-1.2,2.4-0.9,3.9c0.3,1.5,1.2,2.9,2.5,4c1.4,1.1,2.8,1.7,4.4,1.7
	c1.5,0,2.7-0.6,3.5-1.7c0.8-1.1,1.1-2.5,0.8-4c-0.3-1.6-1.1-2.9-2.4-3.9C503.1,343.6,501.7,343.1,500.2,343.1 M542.8,353.8
	c-2.7,10.3-8.5,15.9-17.4,16.8l0.1,3h10.4l-0.2,34.9c0,6,0.2,10,0.6,12c1,4.8,4.2,7.3,9.5,7.3c7.6,0,15.7-4.7,24.1-14l-2.5-2.2
	c-6.1,6.1-11.4,9.2-16.1,9.2c-2.9,0-4.7-1.7-5.3-4.9c-0.2-0.8-0.3-1.7-0.3-2.8l0.1-39.5h15.9l-0.2-4.7h-15.7v-15H542.8z M604.3,367
	c-8.9,0-16.1,4.3-21.8,12.9c-5.6,8.6-7.3,18.1-5.1,28.6c1.3,6.1,3.9,10.9,7.8,14.3c4,3.3,8.9,5,14.9,5c5.6,0,13.3-1.4,16.6-4.2
	c3.3-2.8,6.3-7.4,9.1-13.7l-2.2-2.3c-4.4,8.2-13.4,12.3-20.1,12.3c-9.3,0-15-5.1-17.1-15.2c-0.3-1.3-0.5-2.7-0.6-4.1
	c11.1-1.7,19.4-4.9,25.1-9.3c5.7-4.5,11.3-9.2,10.3-14.2c-0.6-3-2.2-5.3-4.6-7.1C614.1,367.9,607.8,367,604.3,367 M507.1,367.3
	l-19.2,4.4v3.4l6.6-0.8c3.2,0,5.1,1.4,5.7,4.4c0.2,1,0.3,2.3,0.4,4l-0.2,31.3c-0.1,4.3-0.5,6.9-1.5,7.6c-1,0.8-3.6,1.1-7.7,1.1
	l-0.1,3h30.4l-0.1-3c-4.2,0-7-0.3-8.2-1c-1.2-0.6-2-1.8-2.4-3.6c-0.3-1.3-0.4-3.5-0.4-6.6l0.1-44.2H507.1z M599.5,373.1
	c1.9,0,3.6,0.7,5.4,2.1c1.8,1.4,2.9,3,3.2,4.7c1.7,8.3-5.7,14.1-22.3,17.3c-0.5-6.1,0.6-11.6,3.3-16.6
	C591.8,375.7,595.2,373.1,599.5,373.1"/>
<path class="st1" d="M210.9,204.5h-165c-11.1,0-20.1,9.1-20.1,20.1v182c0,11.1,9.1,20.1,20.1,20.1h108.7
	C153.4,372.6,171.9,267.7,210.9,204.5"/>
<g>
	<defs>
		<path id="SVGID_1_" d="M45.9,210.4c-7.8,0-14.2,6.4-14.2,14.3v168.7c36-13.8,90.1-25.8,127.4-25.2c7.5-39.3,29.6-116.2,45.8-157.7
			H45.9z"/>
	</defs>
	<clipPath id="SVGID_2_">
		<use xlink:href="#SVGID_1_"  style="overflow:visible;"/>
	</clipPath>
	
		<linearGradient id="SVGID_3_" gradientUnits="userSpaceOnUse" x1="29.4088" y1="790.726" x2="43.4693" y2="790.726" gradientTransform="matrix(-5.000000e-007 12.0202 -12.0202 -5.000000e-007 9622.9746 -139.352)">
		<stop  offset="0" style="stop-color:#94D2EC"/>
		<stop  offset="0.9202" style="stop-color:#1679BD"/>
		<stop  offset="1" style="stop-color:#1679BD"/>
	</linearGradient>
	<rect x="31.7" y="210.4" class="st2" width="173.2" height="182.9"/>
</g>
<g>
	<path class="st0" d="M249.4,198.6c-11.3-10.1-25-6-38.5,5.9c-2,1.8-4,3.8-6,5.9c-23.1,24.5-44.5,69.9-51.2,104.6
		c2.6,5.3,4.6,12,6,17.1c0.3,1.3,0.6,2.6,0.9,3.6c0.6,2.5,0.9,4.1,0.9,4.1s-0.2-0.8-1.1-3.2c-0.2-0.5-0.3-1-0.5-1.6
		c-0.1-0.2-0.2-0.5-0.4-0.9c-1.5-3.5-5.7-10.9-7.5-14.1c-1.6,4.6-3,9-4.1,12.9c5.3,9.7,8.5,26.3,8.5,26.3s-0.3-1.1-1.6-4.8
		c-1.2-3.3-7.1-13.6-8.5-16c-2.4,8.8-3.3,14.7-2.5,16.2c1.7,2.8,3.2,7.6,4.6,13c3.1,12,5.3,26.7,5.3,26.7s0.1,1,0.2,2.5
		c-0.4,10.1-0.2,20.6,0.6,30.1c1,12.6,3,23.3,5.5,29.1l1.7-0.9c-3.7-11.4-5.1-26.3-4.5-43.5c1-26.3,7-58,18.2-91
		c18.9-49.8,45.1-89.8,69-108.9c-21.8,19.7-51.4,83.6-60.2,107.2c-9.9,26.5-16.9,51.3-21.2,75.1C170.4,371.6,194,362,194,362
		s11.6-14.3,25.1-34.7c-8.1,1.8-21.4,5-25.9,6.9c-6.6,2.8-8.4,3.7-8.4,3.7s21.3-13,39.6-18.9C249.6,279.4,277,223.2,249.4,198.6"/>
</g>
</svg>
